<svg width="67" height="67" viewBox="0 0 67 67" fill="none" xmlns="http://www.w3.org/2000/svg">
<g clip-path="url(#clip0_452_1889)">
<path d="M0.00411425 33.8657C-0.0561971 29.2885 0.772246 25.1952 2.34202 21.2506C4.11115 16.8063 6.73804 12.9177 10.1842 9.60075C13.7559 6.16263 17.8931 3.62707 22.5915 2.00244C26.7153 0.575882 30.9555 0.00843255 35.303 0.22154C37.7607 0.341882 40.1723 0.775618 42.5454 1.42162C42.9659 1.53612 42.9809 1.60214 42.6517 1.91553C41.9858 2.54817 41.3107 3.17244 40.6481 3.80926C40.4697 3.98058 40.2829 4.04242 40.0424 3.9881C38.2306 3.57777 36.3903 3.37134 34.539 3.26187C33.1443 3.17997 31.7538 3.29112 30.3658 3.42483C28.2776 3.62457 26.2337 4.05412 24.24 4.69428C21.6944 5.51161 19.2928 6.64316 17.0412 8.09062C15.1582 9.30073 13.4276 10.6989 11.857 12.2867C8.79868 15.378 6.49428 18.9591 4.97226 23.0315C3.9277 25.8236 3.33213 28.7119 3.13528 31.6887C2.85382 35.9441 3.47955 40.0667 4.94126 44.0597C6.0143 46.9923 7.53381 49.6891 9.4621 52.1536C11.7414 55.0678 14.4512 57.503 17.6075 59.436C20.2134 61.0331 23.0012 62.2031 25.9673 62.9644C28.9217 63.7224 31.9222 64.0065 34.9587 63.872C37.4013 63.7634 39.8004 63.3597 42.1508 62.6569C45.6749 61.6039 48.904 59.9818 51.8333 57.7679C55.7477 54.8095 58.7783 51.1198 60.9277 46.7156C62.2303 44.0464 63.1124 41.2367 63.5655 38.3075C64.007 35.4519 64.079 32.5812 63.6736 29.7064C63.5128 28.5623 63.3167 27.4274 63.0328 26.3083C62.9658 26.0451 63.0252 25.8637 63.2263 25.6832C63.8788 25.0974 64.5238 24.5024 65.1596 23.899C65.3958 23.6742 65.5122 23.6959 65.6086 24.0126C66.0693 25.5328 66.3993 27.0797 66.6498 28.6475C66.9957 30.8137 67.0443 32.9932 66.9731 35.1786C66.922 36.738 66.7126 38.2808 66.4211 39.8118C65.9277 42.4033 65.1412 44.9046 64.0463 47.309C62.8225 49.995 61.2712 52.4737 59.394 54.7544C56.1556 58.6914 52.2136 61.7259 47.5989 63.882C44.3581 65.3963 40.9496 66.3507 37.3887 66.7694C32.7825 67.311 28.27 66.8923 23.8321 65.566C19.1236 64.1595 14.9496 61.8044 11.2689 58.5635C8.00876 55.6937 5.40868 52.3099 3.47201 48.4355C1.88884 45.2682 0.827531 41.9262 0.32745 38.4086C0.0962565 36.7915 -0.0243661 35.1753 0.00411425 33.8657Z" fill="#23A6F0"/>
<path d="M33.4785 36.3602C32.0771 36.3627 30.8558 35.2361 30.731 33.8246C30.607 32.4256 31.6181 31.0985 33.0128 30.8746C33.3503 30.8202 33.6016 30.694 33.8387 30.4567C36.3081 27.983 38.78 25.5118 41.2654 23.0539C41.5661 22.7564 41.6775 22.4481 41.7026 22.0319C41.8408 19.7571 42.0888 17.4864 42.1399 15.2108C42.165 14.0993 42.6952 13.4391 43.4173 12.7438C45.1906 11.0356 46.9137 9.27721 48.6577 7.53893C50.4804 5.72209 52.3023 3.90608 54.1251 2.09007C54.7659 1.45159 55.4058 0.81394 56.0508 0.179633C56.1321 0.10024 56.2016 -0.0610523 56.3524 0.0258619C56.4621 0.0893762 56.4219 0.224762 56.4144 0.33424C56.1966 3.49491 55.9796 6.65558 55.761 9.81625C55.7401 10.1213 55.7242 10.4272 55.6848 10.7297C55.632 11.1333 55.8155 11.2386 56.1899 11.2085C57.5092 11.1049 58.8294 11.0172 60.1495 10.9261C62.025 10.7957 63.9014 10.6687 65.7769 10.5383C66.0407 10.5199 66.3038 10.4873 66.5676 10.4748C66.6832 10.4689 66.8407 10.4046 66.8993 10.5584C66.9446 10.6787 66.8189 10.7539 66.7427 10.83C65.9947 11.5788 65.245 12.3259 64.4953 13.073C61.2024 16.3549 57.9096 19.6359 54.6159 22.9177C54.1334 23.3991 53.6417 23.8713 53.1668 24.3602C53.0185 24.5123 52.8585 24.5783 52.6533 24.5917C50.4293 24.7362 48.2062 24.8842 45.983 25.0329C45.5944 25.0588 45.2057 25.1031 44.8162 25.1182C44.3605 25.1357 44.0179 25.3179 43.6912 25.648C41.3181 28.0407 38.9266 30.4149 36.5351 32.7892C36.3232 32.9989 36.2386 33.2004 36.2587 33.5154C36.3491 35.0122 35.0164 36.3568 33.4785 36.3602ZM59.0773 14.0918C56.9019 14.2414 54.8354 14.3792 52.7689 14.5313C52.4849 14.5522 52.2965 14.5372 52.3224 14.1862C52.4246 12.8156 52.5235 11.4442 52.6231 10.0736C52.6768 9.33822 52.7279 8.60279 52.7882 7.75454C51.9539 8.59443 51.205 9.3566 50.4469 10.1113C48.8093 11.7401 47.1683 13.3664 45.5257 14.9901C45.359 15.1548 45.2593 15.3411 45.2434 15.5751C45.2149 16.0047 45.1839 16.4343 45.1529 16.8638C45.0465 18.3597 44.9452 19.8565 44.8304 21.3516C44.7835 21.9592 44.8145 22.0101 45.4118 21.9901C47.3325 21.9241 49.2399 21.6591 51.1623 21.6207C51.4881 21.614 51.7294 21.4552 51.9572 21.2271C54.208 18.9707 56.468 16.7234 58.7238 14.472C58.821 14.3759 58.9106 14.2731 59.0773 14.0918Z" fill="#23A6F0"/>
<path d="M15.9658 32.9948C15.9951 29.016 17.58 25.0446 20.6969 21.6826C23.1127 19.0768 26.073 17.3811 29.5317 16.5738C31.9642 16.0064 34.4161 15.9529 36.8721 16.461C37.1167 16.512 37.239 16.6173 37.2599 16.8655C37.3294 17.7104 37.4048 18.5545 37.4802 19.3994C37.5204 19.8549 37.2205 19.6969 37.0145 19.6418C35.8216 19.3233 34.6003 19.1504 33.3757 19.1972C27.7776 19.4128 23.5324 21.9157 20.7756 26.8105C19.4454 29.1731 18.8934 31.7487 19.0727 34.4431C19.2997 37.8595 20.5729 40.858 22.9284 43.3802C24.7093 45.2873 26.857 46.6102 29.344 47.3724C31.3578 47.99 33.4268 48.1229 35.5084 47.8245C39.6305 47.2337 42.8957 45.1945 45.3123 41.8375C46.8393 39.7156 47.6636 37.3163 47.8898 34.7047C48.0674 32.658 47.749 30.6865 47.0906 28.7594C46.9817 28.441 47.0504 28.3315 47.3754 28.3073C48.1947 28.2463 49.0122 28.1694 49.8306 28.095C50.0518 28.0749 50.164 28.1777 50.2252 28.3791C51.0678 31.142 51.2655 33.9416 50.7227 36.7873C49.9923 40.6215 48.1561 43.8449 45.2997 46.4865C43.616 48.0435 41.676 49.2076 39.5132 49.994C37.2842 50.8047 34.9831 51.1716 32.6184 51.047C30.4581 50.9334 28.3749 50.4487 26.3947 49.5578C23.7276 48.3577 21.4726 46.6244 19.6758 44.3204C17.2223 41.1722 15.9784 37.6004 15.9658 32.9948Z" fill="#23A6F0"/>
</g>
<defs>
<clipPath id="clip0_452_1889">
<rect width="67" height="67" fill="white"/>
</clipPath>
</defs>
</svg>
