<svg width="117" height="82" viewBox="0 0 117 82" fill="none" xmlns="http://www.w3.org/2000/svg">
<g clip-path="url(#clip0_452_1900)">
<path d="M58.1035 41.8829C51.4024 41.8829 44.6985 41.8802 37.9974 41.8857C35.6957 41.8885 35.2125 42.2449 34.7879 44.4446C33.4667 51.2676 32.1706 58.0961 30.8857 64.9246C30.5505 66.7126 30.9974 67.7682 32.665 68.5613C36.4806 70.3769 40.3466 72.0875 44.1929 73.8368C44.7404 74.0855 45.3102 74.2402 45.5477 73.472C45.8019 72.6402 46.8019 71.7973 45.5281 70.9379C43.3745 69.4843 41.2488 67.992 39.1091 66.5246C37.5253 65.4386 36.6622 63.9242 36.3382 62.0672C36.1817 61.1746 36.3633 60.3179 36.5616 59.4695C37.2376 56.6011 37.9415 53.7381 38.6594 50.8807C39.0393 49.3691 39.5058 49.1011 41.07 49.4327C42.1622 49.6648 43.2516 49.9052 44.3354 50.1705C45.908 50.5519 46.2209 51.0576 45.8438 52.6576C45.3047 54.943 44.7935 57.2367 44.1538 59.4944C43.8577 60.5335 44.151 61.1028 45.0114 61.6637C47.0309 62.9847 48.9974 64.3802 50.975 65.7564C51.8885 66.392 52.7879 67.0387 53.4667 67.9478C54.8661 69.8215 55.2209 71.7448 53.9806 73.8589C53.07 75.4119 52.2823 77.0341 51.4024 78.6009C49.7488 81.5468 46.5784 82.7738 43.4108 81.4832C38.5505 79.5018 33.7236 77.4154 29.0644 75.0057C24.4052 72.596 22.6845 68.6138 23.7069 63.1311C24.9639 56.3911 26.2488 49.6538 27.5561 42.922C28.6538 37.279 31.9778 34.5598 37.7628 34.557C51.3996 34.546 65.0393 34.546 78.6762 34.557C84.2432 34.5625 87.584 37.0773 88.679 42.4577C90.2041 49.9412 91.7739 57.4246 92.8577 64.9854C93.3465 68.3927 92.1566 71.3441 89.4164 73.5604C88.665 74.1684 87.8326 74.7045 86.9695 75.1411C82.489 77.3961 77.8829 79.3968 73.2683 81.3589C69.6817 82.8843 66.3382 81.5219 64.7041 78.0068C64.0449 76.5864 63.4331 75.1383 62.8633 73.6792C61.679 70.645 62.5393 67.7765 65.2097 65.8725C67.2488 64.4189 69.2935 62.9681 71.4024 61.6195C72.3186 61.0337 72.4695 60.4174 72.2097 59.4447C71.5896 57.1317 71.0421 54.7993 70.4946 52.4697C70.1594 51.041 70.489 50.5077 71.894 50.1539C73.1119 49.8472 74.341 49.5874 75.5644 49.3139C76.6762 49.0651 77.3801 49.499 77.6454 50.5878C78.4052 53.7216 79.2516 56.836 79.8717 59.9974C80.4136 62.7664 79.4834 65.0655 77.0393 66.696C75.0337 68.0335 73.1091 69.4954 71.0672 70.7776C69.6566 71.6619 70.4304 72.5794 70.8298 73.4968C71.2711 74.5138 72.0114 73.9307 72.5924 73.6709C76.0728 72.1234 79.5505 70.5703 83.003 68.9648C85.4248 67.8373 85.8354 66.9834 85.3466 64.3692C84.1315 57.8529 82.9052 51.3422 81.6734 44.8288C81.1762 42.209 80.7711 41.8829 78.0728 41.8802C71.4164 41.8802 64.76 41.8829 58.1035 41.8829Z" fill="#23A6F0"/>
<path d="M58.45 0.013817C67.5003 0.0193439 74.4081 6.90587 74.3886 15.9037C74.369 24.7661 67.2657 31.7466 58.288 31.7189C49.3579 31.6913 42.4025 24.6528 42.3243 15.7434C42.2461 7.02194 49.7936 -0.378594 58.45 0.013817ZM66.9863 15.9672C67.0254 11.1423 63.3104 7.30657 58.4584 7.1684C53.8774 7.03576 49.7964 11.0096 49.7377 15.655C49.6791 20.4081 53.4444 24.3156 58.1428 24.3709C63.0618 24.4345 66.9472 20.7397 66.9863 15.9672Z" fill="#23A6F0"/>
<path d="M100.416 39.0227C103.059 39.1582 106.319 38.8155 109.57 39.1941C111.953 39.4732 113.458 40.8024 113.922 43.0519C115.014 48.3715 116.062 53.7022 116.936 59.0578C117.288 61.2133 116.254 63.0841 114.332 64.1978C110.916 66.1792 107.246 67.666 103.587 69.1416C102.081 69.7496 100.606 69.0173 99.8045 67.6079C99.7375 67.4891 99.6788 67.362 99.6174 67.2376C97.2319 62.4237 97.4191 61.719 101.872 58.6958C105.319 56.3551 105.316 56.3551 104.349 52.3398C104.221 51.8037 104.095 51.2621 104.025 50.7149C103.93 49.9771 104.246 49.4354 104.997 49.2669C105.718 49.1038 106.388 49.3581 106.575 50.0655C107.137 52.1934 107.93 54.2853 107.902 56.5292C107.888 57.5904 107.288 58.3282 106.444 58.9086C104.913 59.9587 103.411 61.0447 101.852 62.0506C100.978 62.6144 100.855 63.2196 101.268 64.137C102.704 67.3343 102.282 66.7955 104.958 65.632C107.215 64.6483 109.467 63.6507 111.701 62.6199C113.897 61.6085 114.489 60.5224 114.064 58.2232C113.238 53.7437 112.383 49.2669 111.508 44.7956C111.022 42.314 110.475 41.8829 107.961 41.8802C102.654 41.8746 97.3492 41.8774 92.042 41.8774C91.285 41.8774 90.5978 41.8857 90.2431 40.9599C89.5671 39.1941 89.6453 39.02 91.5755 39.0172C94.3129 39.02 97.0587 39.0227 100.416 39.0227Z" fill="#23A6F0"/>
<path d="M16.4135 41.8857C13.7627 41.8857 11.1091 41.8663 8.45823 41.8912C6.71242 41.9078 5.97499 42.4329 5.62583 44.1324C4.66772 48.8192 3.72918 53.5115 2.89678 58.2205C2.48337 60.5528 3.03923 61.4565 5.23197 62.4955C7.91633 63.7695 10.6426 64.9495 13.3353 66.2069C14.2711 66.6462 14.7599 66.4224 15.1314 65.469C16.3437 62.3574 16.5001 63.145 13.8968 61.2299C12.7767 60.4064 11.6063 59.6547 10.4666 58.8561C9.24594 57.9994 8.73477 56.8443 9.07275 55.3769C9.45543 53.7188 9.85208 52.0607 10.2655 50.4109C10.4694 49.5902 11.0001 49.1121 11.8884 49.2531C12.8521 49.405 13.0392 50.1429 12.894 50.925C12.6342 52.326 12.3297 53.7216 11.9471 55.095C11.6929 56.0069 11.975 56.5596 12.7376 57.0626C14.285 58.0851 15.8018 59.1518 17.3018 60.2406C18.7543 61.2962 19.1761 62.5674 18.6007 64.242C18.2264 65.3281 17.7795 66.3975 17.2739 67.4311C16.4554 69.1002 14.8242 69.7745 13.0616 69.056C9.66493 67.6715 6.27666 66.2511 3.04203 64.5211C0.620239 63.2251 -0.357415 61.1995 0.117445 58.5189C0.980574 53.6276 1.87722 48.7418 2.85767 43.8698C3.53644 40.4984 5.02527 39.1554 8.49454 39.0753C14.1202 38.9454 19.7515 39.0227 25.38 39.0283C25.8549 39.0283 26.6202 38.9647 26.4331 39.7219C26.2236 40.573 26.3493 41.8277 24.9303 41.8525C22.8381 41.8885 20.7431 41.8691 18.651 41.8746C17.9079 41.8774 17.1621 41.8746 16.4191 41.8746C16.4135 41.8829 16.4135 41.8857 16.4135 41.8857Z" fill="#23A6F0"/>
<path d="M92.8268 35.6044C86.5168 35.5905 81.7095 30.7407 81.7291 24.4068C81.7458 18.3383 86.905 13.2673 92.9525 13.3751C99.2263 13.4884 104.215 18.4654 104.193 24.592C104.173 30.7379 99.1341 35.6182 92.8268 35.6044ZM101.344 24.5837C101.36 19.919 97.69 16.227 93.0028 16.1938C88.338 16.1607 84.4302 19.9798 84.433 24.5726C84.4358 29.1019 88.2989 32.9045 92.9134 32.9238C97.5419 32.9431 101.327 29.1987 101.344 24.5837Z" fill="#23A6F0"/>
<path d="M24.0644 35.6044C17.841 35.5961 12.8745 30.7434 12.813 24.6141C12.7516 18.4765 17.9806 13.306 24.179 13.3779C30.3912 13.4497 35.3075 18.4516 35.2795 24.6694C35.2516 30.8429 30.3633 35.6126 24.0644 35.6044ZM15.6594 24.6086C15.6845 29.1876 19.5225 32.957 24.1315 32.9266C28.7963 32.8934 32.5952 29.0522 32.5672 24.3985C32.5421 19.9549 28.6734 16.1966 24.1231 16.1938C19.3521 16.1883 15.6315 19.8886 15.6594 24.6086Z" fill="#23A6F0"/>
</g>
<defs>
<clipPath id="clip0_452_1900">
<rect width="117" height="82" fill="white"/>
</clipPath>
</defs>
</svg>
